Coordinates
version=1
nRows=10
nColumns=40
inDegrees=yes

Units are S.I. units (second, meters, Newtons, ...)
Angles are in degrees.

endheader
time	pelvis_tilt	pelvis_list	pelvis_rotation	pelvis_tx	pelvis_ty	pelvis_tz	hip_flexion_r	hip_adduction_r	hip_rotation_r	knee_angle_r	knee_angle_r_beta	ankle_angle_r	subtalar_angle_r	mtp_angle_r	hip_flexion_l	hip_adduction_l	hip_rotation_l	knee_angle_l	knee_angle_l_beta	ankle_angle_l	subtalar_angle_l	mtp_angle_l	lumbar_extension	lumbar_bending	lumbar_rotation	arm_flex_r	arm_add_r	arm_rot_r	elbow_flex_r	pro_sup_r	wrist_flex_r	wrist_dev_r	arm_flex_l	arm_add_l	arm_rot_l	elbow_flex_l	pro_sup_l	wrist_flex_l	wrist_dev_l
     52.72250000	     -3.66143770	     -4.68345524	     -2.66345492	      0.77706593	      0.93755258	      0.43771372	     31.26181785	     -4.43460096	     -6.10716003	     58.87711986	     58.87711986	      2.15559436	     -9.33631300	     -2.78013168	     10.47741775	     -4.75507829	    -10.83880234	     17.79348754	     17.79348754	     13.31523008	     -6.83299881	     -0.92694745	    -10.05394228	      5.55265077	      1.05645161	     -8.35855109	    -12.71879520	     -3.26854856	     24.99100036	     46.30043944	      0.00000000	      0.00000000	     21.07911673	    -16.56271155	     -6.25352595	     51.78943905	     46.66197531	      0.00000000	      0.00000000
     52.73585714	     -3.84873360	     -4.78370224	     -2.85770469	      0.77575090	      0.93788896	      0.43790658	     31.63897797	     -4.12596726	     -6.67232281	     56.03489256	     56.03489256	      2.47222042	     -8.97199827	     -2.54609032	      9.87676262	     -4.81506104	    -11.07539513	     17.07011703	     17.07011703	     13.40111377	     -6.52517448	     -0.96569093	     -9.94977666	      5.58232176	      0.82493111	     -9.56636021	    -12.85916856	     -3.37078286	     24.64677029	     46.31412790	      0.00000000	      0.00000000	     21.89782522	    -17.04297083	     -6.51842236	     52.39493930	     46.70140320	      0.00000000	      0.00000000
     52.74921429	     -3.91790611	     -4.79241679	     -3.10588879	      0.77446429	      0.93818430	      0.43827919	     31.75009800	     -3.84662872	     -7.12251515	     52.84641475	     52.84641475	      2.72273845	     -8.49420774	     -2.43267983	      9.07247315	     -4.79126892	    -11.53313592	     16.21500293	     16.21500293	     13.43034905	     -5.97104022	     -1.30247921	    -10.07261639	      5.48508575	      0.88854559	    -10.87465053	    -12.95338328	     -3.65319292	     24.54694889	     46.33253824	      0.00000000	      0.00000000	     22.71723203	    -17.31185513	     -6.97357673	     53.49805164	     46.76640539	      0.00000000	      0.00000000
     52.76257143	     -4.04859760	     -4.83962446	     -3.32070050	      0.77321683	      0.93818780	      0.43870612	     31.70641316	     -3.51033856	     -7.63118236	     49.26186378	     49.26186378	      3.03716506	     -7.92928811	     -2.26499562	      8.44466494	     -4.81839138	    -11.87348681	     15.56415879	     15.56415879	     13.51248762	     -5.58395250	     -1.63430030	    -10.07219201	      5.44468613	      0.83979101	    -11.95741088	    -13.12023713	     -3.91555434	     24.50210680	     46.34811643	      0.00000000	      0.00000000	     23.38792765	    -17.62721958	     -7.35597833	     54.38597260	     46.81913616	      0.00000000	      0.00000000
     52.77592857	     -4.24668918	     -4.85466768	     -3.52086455	      0.77193680	      0.93787016	      0.43920039	     31.60540728	     -3.18481603	     -8.15595258	     45.43400143	     45.43400143	      3.25243082	     -7.24093896	     -1.98398284	      7.94402777	     -4.81588706	    -12.17582657	     15.00627002	     15.00627002	     13.62755610	     -5.27940366	     -1.94336705	     -9.97752799	      5.38940711	      0.75065375	    -12.92365591	    -13.25200333	     -4.12916005	     24.43538335	     46.36091132	      0.00000000	      0.00000000	     23.99387301	    -17.90272176	     -7.66723470	     55.15532135	     46.86225121	      0.00000000	      0.00000000
     52.78928571	     -4.33317710	     -4.77878286	     -3.75284854	      0.77083411	      0.93746986	      0.43981434	     31.22793081	     -2.91668183	     -8.61236119	     41.38120940	     41.38120940	      3.38892612	     -6.34501733	     -2.18233520	      7.23687467	     -4.72632148	    -12.70503596	     14.29673280	     14.29673280	     13.54931321	     -4.67965361	     -2.90953148	    -10.06541949	      5.22026283	      0.87698867	    -13.97053763	    -13.30064182	     -4.80285820	     24.82772830	     46.39295687	      0.00000000	      0.00000000	     24.43547121	    -17.97962439	     -8.37823982	     56.62974341	     46.95258973	      0.00000000	      0.00000000
     52.80264286	     -4.64451075	     -4.70893855	     -3.95663685	      0.76960777	      0.93655685	      0.44053130	     31.00001457	     -2.56419806	     -9.02662980	     37.24864939	     37.24864939	      3.58198900	     -5.48108378	     -1.67315734	      6.99449520	     -4.65650768	    -12.87128621	     13.98987668	     13.98987668	     13.74819249	     -4.64027059	     -3.16090237	     -9.83434073	      5.08448323	      0.76073662	    -14.55311394	    -13.33762081	     -4.93636672	     24.75620922	     46.40208255	      0.00000000	      0.00000000	     24.94407121	    -18.30661528	     -8.56916904	     57.07293272	     46.97886758	      0.00000000	      0.00000000
     52.81600000	     -4.71560748	     -4.67054039	     -4.09890926	      0.76874800	      0.93584519	      0.44119509	     30.29894358	     -2.21881217	     -9.60024101	     32.97483494	     32.97483494	      3.77641019	     -4.31555109	     -1.12153500	      6.40027763	     -4.59138660	    -13.07311657	     13.55393946	     13.55393946	     13.93885606	     -4.42326845	     -3.55029440	     -9.86281491	      5.04052718	      0.78107675	    -15.12693948	    -13.46791375	     -5.14075999	     24.69644856	     46.41717685	      0.00000000	      0.00000000	     25.35927879	    -18.36933681	     -8.78192601	     57.69660856	     47.00922744	      0.00000000	      0.00000000
     52.82935714	     -4.84270871	     -4.51203632	     -4.26202101	      0.76798907	      0.93484390	      0.44196285	     29.64140081	     -1.95458429	    -10.12154182	     28.87686772	     28.87686772	      3.90866176	     -3.05467313	     -0.44357127	      5.88598412	     -4.40676014	    -13.32143906	     13.15247226	     13.15247226	     14.12435287	     -4.20762133	     -3.99959317	     -9.81294498	      4.85194809	      0.84911112	    -15.55087709	    -13.48957253	     -5.33897394	     24.67926133	     46.43105717	      0.00000000	      0.00000000	     25.70683970	    -18.41315244	     -9.00014762	     58.29257033	     47.03931977	      0.00000000	      0.00000000
     52.84271429	     -4.80964617	     -4.29219490	     -4.39610292	      0.76759904	      0.93387396	      0.44271311	     28.79815064	     -1.83455051	    -10.89484065	     25.12322320	     25.12322320	      4.18941410	     -1.24491322	      0.62170672	      5.08551994	     -4.13429270	    -13.71150580	     12.55169565	     12.55169565	     14.05243450	     -3.79293863	     -5.23752432	     -9.92958055	      4.60137838	      0.92220404	    -15.90834333	    -13.49107506	     -6.05714308	     24.81880042	     46.48358128	      0.00000000	      0.00000000	     25.80321826	    -18.28974436	     -9.63329442	     59.37520611	     47.11433368	      0.00000000	      0.00000000
